<svg width="25" height="27" viewBox="0 0 25 27" fill="none" stroke="white" stroke-linecap="square" stroke-weight="1.5" xmlns="http://www.w3.org/2000/svg">
<path d="M24.5 7.5V2.5H19M24.5 7.5H19M24.5 7.5V12M0.5 7.5V2.5H6.5M0.5 7.5H6.5M0.5 7.5V12M13 7.5H19M13 7.5H6.5M13 7.5V12M13 26.5H19M13 26.5H6.5M13 26.5V21.5M19 7.5V12M19 26.5H22.5C23.6046 26.5 24.5 25.6046 24.5 24.5V21.5M19 26.5V21.5M6.5 7.5V12M6.5 26.5H2.5C1.39543 26.5 0.5 25.6046 0.5 24.5V21.5M6.5 26.5V21.5M24.5 17V12M24.5 17V21.5M24.5 17H19M0.5 17V12M0.5 17V21.5M0.5 17H6.5M0.5 12H6.5M24.5 12H19M24.5 21.5H19M0.5 21.5H6.5M19 4.5V2.5M19 2.5V0.5M19 2.5H6.5M6.5 2.5V0.5M6.5 2.5V4.5M19 12V17M19 12H13M19 17V21.5M19 17H13M19 21.5H13M13 21.5V17M13 21.5H6.5M13 17V12M13 17H6.5M13 12H6.5M6.5 12V17M6.5 17V21.5"/>
</svg>
