<svg width="25" height="23" viewBox="0 0 25 23" fill="none" stroke="white" stroke-linecap="square" xmlns="http://www.w3.org/2000/svg">
<path d="M18.5 18.0296C19.8807 18.0296 21 16.9103 21 15.5296C21 14.1489 19.8807 13.0296 18.5 13.0296C17.1193 13.0296 16 14.1489 16 15.5296C16 16.9103 17.1193 18.0296 18.5 18.0296ZM18.5 18.0296C16.2909 18.0296 14.5 19.8204 14.5 22.0296H22.5C22.5 19.8204 20.7091 18.0296 18.5 18.0296ZM9.5 5.52956C9.5 8.01485 7.48528 10.0296 5 10.0296C2.51472 10.0296 0.5 8.01485 0.5 5.52956C0.5 3.04428 2.51472 1.02956 5 1.02956C7.48528 1.02956 9.5 3.04428 9.5 5.52956ZM0.5 13.0296H9.5V22.0296H0.5V13.0296ZM18.5 1.02956L23.5 10.0296H13.5L18.5 1.02956Z"/>
</svg>