<svg width="24" height="30" viewBox="0 0 24 30" fill="none" stroke="white" stroke-linecap="square" xmlns="http://www.w3.org/2000/svg">
<path d="M12 7.27088C11.6846 7.27088 12.684 7.27088 12 7.27088V7.27088Z" fill="#DADADA"/>
<path d="M12 7.27088C11.316 7.27088 12.3154 7.27088 12 7.27088V7.27088Z" fill="#DADADA"/>
<path d="M0.5 18.2709V29.2709H12M0.5 18.2709V7.27088H12M0.5 18.2709H12M23.5 18.2709V7.27088H12M23.5 18.2709V29.2709H12M23.5 18.2709H12M12 7.27088C13 2.77088 16.2449 -1.22912 18.6858 1.27088C21.158 3.80303 14.8753 7.11498 12 7.27088ZM12 7.27088C11.6846 7.27088 12.684 7.27088 12 7.27088ZM12 7.27088V18.2709M12 7.27088C11 2.77088 7.75505 -1.22912 5.31421 1.27088C2.84198 3.80303 9.12471 7.11498 12 7.27088ZM12 7.27088C12.3154 7.27088 11.316 7.27088 12 7.27088ZM12 29.2709V18.2709"/>
</svg>